<svg width="96" height="96" viewBox="0 0 480 480" fill="none" xmlns="http://www.w3.org/2000/svg">
<path d="M121.95 468.15C100.05 468.15 82.35 462.45 68.85 451.05C55.65 439.95 49.05 425.25 49.05 
406.95C49.05 395.55 51.75 385.05 57.15 375.45C62.55 365.85 69.9 358.35 79.2 352.95C88.5 347.25 98.7 
344.4 109.8 344.4C121.2 344.4 130.35 347.25 137.25 352.95C144.45 358.65 148.05 366.15 148.05 375.45C148.05 
382.65 146.4 388.35 143.1 392.55C140.4 388.95 136.65 386.1 131.85 384C127.35 381.9 122.55 380.85 117.45 
380.85C108.45 380.85 101.1 383.85 95.4 389.85C89.7 395.85 86.85 403.65 86.85 413.25C86.85 422.85 89.55 
430.65 94.95 436.65C100.65 442.65 107.7 445.65 116.1 445.65C126.6 445.65 135.6 441 143.1 431.7C150.6 422.4 
156.3 408.6 160.2 390.3L182.7 290.85H180.9C172.8 302.25 162.9 310.95 151.2 316.95C139.8 322.95 127.2 325.95 
113.4 325.95C96 325.95 80.7 321.3 67.5 312C54.3 302.7 44.1 289.5 36.9 272.4C30 255 26.55 234.9 26.55 212.1C26.55 
179.1 33.75 149.1 48.15 122.1C62.55 94.8 82.35 73.35 107.55 57.75C132.75 42.15 160.5 34.35 190.8 34.35C216.3 34.35 
236.4 39.9 251.1 51C266.1 62.1 273.6 77.25 273.6 96.45C273.6 109.35 270.45 119.7 264.15 127.5C257.85 135.3 249.6 139.2 
239.4 139.2C233.7 139.2 228.3 138 223.2 135.6C218.4 133.2 214.35 129.75 211.05 125.25C216.45 121.65 220.95 115.95 
224.55 108.15C228.45 100.05 230.4 91.95 230.4 83.85C230.4 74.85 227.7 67.95 222.3 63.15C217.2 58.05 209.85 55.5 
200.25 55.5C182.85 55.5 166.05 63.3 149.85 78.9C133.65 94.2 120.6 114.3 110.7 139.2C100.8 164.1 95.85 190.2 95.85 
217.5C95.85 240 99.45 257.25 106.65 269.25C113.85 280.95 124.2 286.8 137.7 286.8C153.9 286.8 168.15 278.25 180.45 
261.15C193.05 244.05 203.1 219.15 210.6 186.45L263.7 186.9L230.85 338.1C221.25 382.8 207.6 415.65 189.9 436.65C172.5 457.65 149.85 468.15 121.95 468.15Z" fill="#7B6254"/>
<path d="M323.133 359.227C304.197 359.227 287.514 355.875 273.087 349.17C258.659 342.465 247.538 333.17 239.723 
321.285C231.908 309.094 228 295.075 228 279.227C228 265.818 230.705 253.627 236.116 242.656C241.827 231.685 249.341 
222.999 258.659 216.599C268.277 210.199 278.798 206.999 290.22 206.999C300.74 206.999 309.607 209.742 316.821 
215.227C324.035 220.408 328.543 227.723 330.347 237.17C314.717 237.17 302.243 241.437 292.925 249.97C283.607 
258.199 278.948 269.475 278.948 283.799C278.948 296.904 282.855 307.418 290.671 315.342C298.486 323.265 308.855 
327.227 321.78 327.227C337.711 327.227 350.786 321.894 361.006 311.227C371.526 300.256 376.786 286.542 376.786 
270.085C376.786 255.761 372.879 242.199 365.064 229.399C357.249 216.599 345.526 201.056 329.896 182.77C313.665 
163.875 301.341 147.723 292.925 134.313C284.809 120.599 280.751 105.666 280.751 89.5132C280.751 73.6656 285.11 
59.4942 293.827 46.999C302.543 34.199 314.566 24.1419 329.896 16.8276C345.225 9.51328 362.509 5.85614 381.746 
5.85614C406.092 5.85614 425.48 11.6466 439.907 23.2276C454.636 34.8085 462 50.3514 462 69.8561C462 82.6561 
458.844 93.018 452.532 100.942C446.22 108.866 437.954 112.827 427.734 112.827C416.312 112.827 407.144 108.104 
400.231 98.6561C405.942 94.3894 410.451 88.7513 413.757 81.7418C417.064 74.7323 418.717 67.418 418.717 
59.799C418.717 50.0466 415.861 42.2752 410.15 36.4847C404.439 30.6942 396.624 27.799 386.705 27.799C374.682 
27.799 364.763 32.218 356.948 41.0561C349.434 49.5894 345.676 60.5609 345.676 73.9704C345.676 86.1609 
349.133 97.5894 356.046 108.256C362.96 118.618 373.78 132.028 388.509 148.485C400.532 161.589 410.15 
172.866 417.364 182.313C424.879 191.761 431.191 202.732 436.301 215.227C441.711 227.418 444.416 
240.675 444.416 254.999C444.416 274.504 439.006 292.18 428.185 308.027C417.665 323.875 403.087 336.37 
384.451 345.513C366.116 354.656 345.676 359.227 323.133 359.227Z" fill="#C4AD9D"/>
</svg>
